
<svg version="1.1"
	 xmlns="http://www.w3.org/2000/svg" 
	 x="0px" y="0px" viewBox="0 0 331.3 72.3" enable-background="new 0 0 331.3 72.3"
	 xml:space="preserve">

<g>
	<path fill="#FFFFFF" d="M76.5,45c0,9.5,36.5,27.3,84,27.3s84-17.8,84-27.3c0,0-20.1,21.3-84,21.3S76.5,45,76.5,45z"/>
	<path opacity="0.75" fill="#FFFFFF" d="M96.7,43.9c0,7.6,28.6,19.5,63.8,19.5s63.8-12,63.8-19.5c0,0-16.4,14.7-63.8,14.7
		S96.7,43.9,96.7,43.9z"/>
	<path opacity="0.5" fill="#FFFFFF" d="M120.6,43.4c0,4.4,17.8,11.9,39.8,11.9s39.8-7.5,39.8-11.9c0,0-10.2,8.1-39.8,8.1
		S120.6,43.4,120.6,43.4z"/>
</g>
<g>
	<g>
		<g>
			<g>
				<path fill="#007CBA" d="M9.4,36l10.2-24.8L29.8,36l7.6-23.5h1.7L30,40.7L19.5,15.5L9.1,40.7L0,12.5h1.7L9.4,36z"/>
				<path fill="#007CBA" d="M56.1,31.4c0,5-3.9,8.7-8.8,8.7c-4.8,0-8.7-3.9-8.7-8.7c0-4.8,3.8-8.8,8.7-8.8
					C52.2,22.7,56.1,26.5,56.1,31.4z M40.2,31.5c0,3.8,3,7.2,7,7.2c4.1,0,7.3-3.1,7.3-7.2c0-4.1-3.2-7.2-7.3-7.2
					C43.2,24.2,40.2,27.6,40.2,31.5z"/>
				<path fill="#007CBA" d="M75.9,31.4c0,5-3.9,8.7-8.8,8.7c-4.8,0-8.7-3.9-8.7-8.7c0-4.8,3.8-8.8,8.7-8.8
					C72,22.7,75.9,26.5,75.9,31.4z M60,31.5c0,3.8,3,7.2,7,7.2c4.1,0,7.3-3.1,7.3-7.2c0-4.1-3.2-7.2-7.3-7.2
					C63,24.2,60,27.6,60,31.5z"/>
				<path fill="#007CBA" d="M81.5,39.8h-1.6V9.9h1.6V39.8z"/>
				<path fill="#007CBA" d="M88.7,39.8h-1.6V24.6h-1.8v-1.5h1.8v-7.5c0-1.2,0-3,0.7-4.1c0.8-1.3,2.2-2,3.7-2c0.5,0,1,0.1,1.4,0.3
					v1.5C92.5,11.1,92,11,91.6,11c-2.8,0-2.9,2.8-2.9,4.9v7.2h4.2v1.5h-4.2V39.8z"/>
				<path fill="#007CBA" d="M111.6,31.4c0,5-3.9,8.7-8.8,8.7c-4.8,0-8.7-3.9-8.7-8.7c0-4.8,3.8-8.8,8.7-8.8
					C107.8,22.7,111.6,26.5,111.6,31.4z M95.8,31.5c0,3.8,3,7.2,7,7.2c4.1,0,7.3-3.1,7.3-7.2c0-4.1-3.2-7.2-7.3-7.2
					C98.7,24.2,95.8,27.6,95.8,31.5z"/>
				<path fill="#007CBA" d="M117.2,25.2L117.2,25.2c0.7-1.5,1.9-2.5,3.7-2.5c0.7,0,1.2,0.1,1.8,0.4l-0.9,1.4
					c-0.4-0.2-0.7-0.3-1.2-0.3c-3.7,0-3.4,4.6-3.4,7v8.5h-1.6V23.1h1.6V25.2z"/>
				<path fill="#007CBA" d="M138.7,36.8L138.7,36.8c-1.3,2.1-4,3.4-6.4,3.4c-5.1,0-8.3-3.9-8.3-8.8s3.2-8.6,8.2-8.6
					c2.6,0,5,1.2,6.4,3.3h0.1v-16h1.6v29.9h-1.6V36.8z M138.8,31.2c0-3.9-2.6-6.9-6.7-6.9c-3.8,0-6.5,3.5-6.5,7.1
					c0,3.8,2.5,7.3,6.6,7.3C136.5,38.7,138.8,35.2,138.8,31.2z"/>
				<path fill="#007CBA" d="M182.5,30.8l-3.7,9H177l11.4-28.2l11.4,28.2h-1.8l-3.7-9H182.5z M188.5,16l-5.4,13.2h10.7L188.5,16z"/>
				<path fill="#007CBA" d="M209.9,26.1c-0.5-1.2-1.6-1.9-2.9-1.9c-1.4,0-2.9,1.2-2.9,2.6c0,4,8.2,2.1,8.2,8.1
					c0,3.1-2.4,5.2-5.4,5.2c-2.8,0-5.1-1.7-5.8-4.4l1.6-0.5c0.6,2,2,3.4,4.2,3.4c2.1,0,3.8-1.7,3.8-3.8c0-2.1-1.6-2.7-3.3-3.3
					c-2.3-0.8-4.9-1.8-4.9-4.6c0-2.5,2.1-4.2,4.6-4.2c1.7,0,3.5,1.1,4.3,2.7L209.9,26.1z"/>
				<path fill="#007CBA" d="M223.5,26.1c-0.5-1.2-1.6-1.9-2.9-1.9c-1.4,0-2.9,1.2-2.9,2.6c0,4,8.2,2.1,8.2,8.1
					c0,3.1-2.4,5.2-5.4,5.2c-2.8,0-5.1-1.7-5.8-4.4l1.6-0.5c0.6,2,2,3.4,4.2,3.4c2.1,0,3.8-1.7,3.8-3.8c0-2.1-1.6-2.7-3.3-3.3
					c-2.3-0.8-4.9-1.8-4.9-4.6c0-2.5,2.1-4.2,4.6-4.2c1.7,0,3.5,1.1,4.3,2.7L223.5,26.1z"/>
				<path fill="#007CBA" d="M245.9,31.4c0,5-3.9,8.7-8.8,8.7c-4.8,0-8.7-3.9-8.7-8.7c0-4.8,3.8-8.8,8.7-8.8
					C242,22.7,245.9,26.5,245.9,31.4z M230,31.5c0,3.8,3,7.2,7,7.2c4.1,0,7.3-3.1,7.3-7.2c0-4.1-3.2-7.2-7.3-7.2
					C233,24.2,230,27.6,230,31.5z"/>
				<path fill="#007CBA" d="M262.7,27c-1.6-1.7-3.5-2.7-5.9-2.7c-3.9,0-6.9,3.4-6.9,7.2c0,3.8,2.9,7.2,6.9,7.2c2.4,0,4.6-1.2,6.2-3
					v2.2c-1.7,1.5-3.8,2.3-6.1,2.3c-5,0-8.6-3.9-8.6-8.8c0-4.9,3.7-8.7,8.6-8.7c2.2,0,4.2,0.7,5.8,2.1V27z"/>
				<path fill="#007CBA" d="M270.1,17.5c0,0.8-0.7,1.5-1.5,1.5s-1.5-0.7-1.5-1.5c0-0.8,0.7-1.5,1.5-1.5S270.1,16.7,270.1,17.5z
					 M269.4,39.8h-1.6V23.1h1.6V39.8z"/>
				<path fill="#007CBA" d="M290.3,39.8h-1.6v-3h-0.1c-1.2,2.1-3.9,3.4-6.4,3.4c-5.1,0-8.3-3.9-8.3-8.8s3.2-8.6,8.2-8.6
					c2.6,0,5,1.2,6.4,3.3h0.1v-2.9h1.6V39.8z M275.6,31.3c0,3.8,2.5,7.3,6.6,7.3c4.3,0,6.6-3.5,6.6-7.5c0-3.9-2.6-6.9-6.7-6.9
					C278.3,24.2,275.6,27.7,275.6,31.3z"/>
				<path fill="#007CBA" d="M297.7,39.8h-1.6V24.6h-1.8v-1.5h1.8v-6h1.6v6h2.9v1.5h-2.9V39.8z"/>
				<path fill="#007CBA" d="M303.5,31.6c-0.1,4.2,2.8,7.1,6.7,7.1c2.6,0,4.7-1.6,5.9-3.8l1.4,0.8c-1.5,2.9-4.2,4.5-7.5,4.5
					c-5,0-8.1-4-8.1-8.8c0-4.7,3.2-8.7,8.1-8.7c5.1,0,8.1,4.1,8,8.9H303.5z M316.4,30.1c-0.4-3.1-2.9-5.8-6.4-5.8
					c-3.4,0-6.2,2.7-6.5,5.8H316.4z"/>
				<path fill="#007CBA" d="M329,26.1c-0.5-1.2-1.6-1.9-2.9-1.9c-1.4,0-2.9,1.2-2.9,2.6c0,4,8.2,2.1,8.2,8.1c0,3.1-2.4,5.2-5.4,5.2
					c-2.8,0-5.1-1.7-5.8-4.4l1.6-0.5c0.6,2,2,3.4,4.2,3.4c2.1,0,3.8-1.7,3.8-3.8c0-2.1-1.6-2.7-3.3-3.3c-2.3-0.8-4.9-1.8-4.9-4.6
					c0-2.5,2.1-4.2,4.6-4.2c1.7,0,3.5,1.1,4.3,2.7L329,26.1z"/>
			</g>
		</g>
		<g>
			<path fill="#007CBA" d="M174.4,33.7c0,8-6.5,14.4-14.4,14.4s-14.4-6.5-14.4-14.4S159.9,0,159.9,0S174.4,25.8,174.4,33.7z"/>
		</g>
		<g>
			<path fill="#FFFFFF" d="M164,36.5c-1.6,1.9-3.9,3.4-6.5,3.4c-3.6,0-6.6-2.6-6.6-6.4c0-2.8,1.7-4.2,3.8-5.7l1.3-1
				c-1.2-1.3-2.4-2.9-2.4-4.7c0-3,2.2-4.7,5-4.7c2.6,0,5,1.7,5,4.5c0,2.4-2.1,4.1-3.9,5.4l4.5,5.5l2.5-2.9l1.7,1.8l-2.6,3.1l3.9,4.8
				h-3.3L164,36.5z M157.4,29c-1.5,1-3.9,2.5-3.9,4.6s2,4,4,4c2,0,3.6-1.5,5-2.9l-4.8-5.9L157.4,29z M158.5,25.2
				c1.1-0.9,2.6-1.8,2.6-3.3c0-1.5-1.1-2.4-2.5-2.4c-1.3,0-2.4,0.9-2.4,2.3c0,1.1,0.7,1.9,1.3,2.7l0.7,0.9L158.5,25.2z"/>
		</g>
	</g>
</g>
<g>
	<path fill="#007CBA" d="M76.5,45c0,9.5,36.5,27.3,84,27.3s84-17.8,84-27.3c0,0-20.1,21.3-84,21.3S76.5,45,76.5,45z"/>
	<path opacity="0.66" fill="#3FD5AE" d="M96.7,43.9c0,7.6,28.6,19.5,63.8,19.5s63.8-12,63.8-19.5c0,0-16.4,14.7-63.8,14.7
		S96.7,43.9,96.7,43.9z"/>
	<path opacity="0.33" fill="#3FD5AE" d="M120.6,43.4c0,4.4,17.8,11.9,39.8,11.9s39.8-7.5,39.8-11.9c0,0-10.2,8.1-39.8,8.1
		S120.6,43.4,120.6,43.4z"/>
</g>
</svg>
